<svg version="1.1" id="ibb_logo" class="c-logo" role="img" xmlns="http://www.w3.org/2000/svg" xmlns:xlink="http://www.w3.org/1999/xlink" x="0px" y="0px" viewBox="0 0 136.154 136.154" enable-background="new 0 0 136.154 136.154" xml:space="preserve">
	<g>
		<path fill="#00ADCE" d="M0.283,18.451c0-10.029,8.129-18.157,18.157-18.157s18.157,8.128,18.157,18.157
			c0,10.028-8.129,18.157-18.157,18.157S0.283,28.479,0.283,18.451L0.283,18.451z"/>
		<path fill="#00ADCE" d="M0.283,68.082c0-10.028,8.129-18.157,18.157-18.157s18.157,8.129,18.157,18.157
			c0,10.027-8.129,18.156-18.157,18.156S0.283,78.109,0.283,68.082L0.283,68.082z"/>
		<path fill="#00ADCE" d="M0.283,117.712c0-10.027,8.129-18.156,18.157-18.156s18.157,8.128,18.157,18.156
			c0,10.029-8.129,18.158-18.157,18.158S0.283,127.741,0.283,117.712L0.283,117.712z"/>
		<path fill="#BBE5EE" d="M99.545,117.712c0-10.027,8.128-18.156,18.156-18.156s18.157,8.128,18.157,18.156
			c0,10.029-8.129,18.158-18.157,18.158S99.545,127.741,99.545,117.712L99.545,117.712z"/>
		<path fill="#5FCDE2" d="M49.914,117.712c0-10.027,8.129-18.156,18.157-18.156s18.157,8.128,18.157,18.156
			c0,10.029-8.129,18.158-18.157,18.158S49.914,127.741,49.914,117.712L49.914,117.712z"/>
		<path fill="#BBE5EE" d="M99.545,68.082c0-10.028,8.128-18.157,18.156-18.157s18.157,8.129,18.157,18.157
			c0,10.027-8.129,18.156-18.157,18.156S99.545,78.109,99.545,68.082L99.545,68.082z"/>
		<path fill="#5FCDE2" d="M49.914,68.082c0-10.028,8.129-18.157,18.157-18.157s18.157,8.129,18.157,18.157
			c0,10.027-8.129,18.156-18.157,18.156S49.914,78.109,49.914,68.082L49.914,68.082z"/>
	</g>
</svg>
