<svg version="1.2" xmlns="http://www.w3.org/2000/svg" viewBox="0 0 596 134" width="596" height="134">
	<title>New Project</title>
	<style>
		.s0 { opacity: 1;fill: #071212 } 
		.s1 { opacity: .6;fill: #0c1516 } 
		.s2 { opacity: .8;fill: #0b1414 } 
		.s3 { opacity: .2;fill: #333939 } 
		.s4 { opacity: .2;fill: #161b1e } 
		.s5 { opacity: .4;fill: #101516 } 
		.s6 { opacity: 1;fill: #3b4044 } 
		.s7 { opacity: .5;fill: #32393c } 
		.s8 { opacity: 1;fill: #737778 } 
		.s9 { opacity: .2;fill: #4b4f51 } 
		.s10 { opacity: .5;fill: #5b6264 } 
		.s11 { opacity: 1;fill: #babebe } 
		.s12 { opacity: .4;fill: #767e7f } 
		.s13 { opacity: .7;fill: #604144 } 
		.s14 { opacity: .1;fill: #696e71 } 
		.s15 { opacity: .2;fill: #d2d7d9 } 
		.s16 { opacity: .6;fill: #c1c5c8 } 
		.s17 { opacity: 1;fill: #e7eaeb } 
		.s18 { opacity: 1;fill: #999c9f } 
		.s19 { fill: #1c1919 } 
	</style>
	<g id="Background">
		<path id="Path 0" fill-rule="evenodd" class="s0" d="m35 3l11-1h46l6 1h7l1 1h1l1 1h1l1 1h1l1 1h1l2 2h1l8 8v1l1 1v1l1 1v1l1 1v1l1 1v1l1 1v4l1 1v73l-1 1v3l-1 1v2l-2 2v2l-2 2v1l-8 8h-1l-1 1h-1l-1 1h-1l-1 1h-1l-1 1h-2l-1 1h-60l-6 1h-1l-5-1h-6l-1-1h-2l-1-1h-1l-1-1h-1l-1-1h-1l-2-2h-1l-6-6v-1l-3-3v-1l-1-1v-1l-1-1v-1l-1-1v-3l-1-1v-76l1-1v-2l1-1v-2l1-1v-1l1-1v-1l2-2v-1l3-3v-1l1-1h1l3-3h1l2-2h1l1-1h1l1-1h1l1-1h2l2-1zm-5 8l-1 1h-2l-1 1h-2l-1 1h-1l-3 3h-1l-4 4v1l-1 1v2l-1 1-1 2v4l-1 1v69l1 2v3l1 2v1l1 1v1l1 1v1l7 7h1l1 1h1l1 1h1l2 1h76l2-1h1l1-1h1l2-2h1l5-5v-1l1-1v-1l1-1 1-2v-2l1-1v-76l-1-2v-1l-2-4-1-1v-1l-5-5h-1l-2-2h-1l-1-1h-1l-1-1h-2l-1-1h-22l-1-1h-2l-3 1h-17l-3-1h-2l-2 1z"/>
		<path id="Path 1" class="s1" d="m98 2h1v1h-1zm12 3h1v1h-1zm2 1h1v1h-1zm-94 1h1v1h-1zm95 0h1v1h-1zm2 1h1v1h-1zm-100 1h1v1h-1zm101 0h1v1h-1zm6 6h1v1h-1zm1 1h1v1h-1zm-117 3h1v1h-1zm119 0h1v1h-1zm-120 2h1v1h-1zm121 0h1v1h-1zm-122 2h1v1h-1zm122 91h1v1h-1zm-118 5h1v1h-1zm7 7h1v1h-1zm3 2h1v1h-1zm95 0h1v1h-1zm-93 1h1v1h-1zm91 0h1v1h-1zm-81 4v-1h2v1zm16 0v-1h26v1zm31 0v-1h8v1zm11 0v-1h12v1z"/>
		<path id="Path 2" class="s2" d="m27 4v-1h1 1zm-3 0h1v1h-1zm-2 1h1v1h-1zm87 0h1v1h-1zm-89 1h1v1h-1zm91 0h1v1h-1zm-94 2h1v1h-1zm97 0h1v1h-1zm-100 2h1v1h-1zm103 0h1v1h-1zm-104 1h1v1h-1zm105 0h1v1h-1zm1 1h1v1h-1zm1 1h1v1h-1zm-110 1h1v1h-1zm111 0h1v1h-1zm-112 1h1v1h-1zm-1 1h1v1h-1zm-1 2h1v1h-1zm117 0h1v1h-1zm1 2h1v1h-1zm1 2h1v1h-1zm1 2h1v1h-1zm-124 2h1v1h-1zm29 106h1v1h-1z"/>
		<path id="Path 3" class="s3" d="m127 22v-1l1 2h-1zm-124 3l1-2v1 1zm126 4v-2l1 2zm1 73v-67h1v67zm-129 0h1v1h-1zm128 7h1v1h-1zm-1 2h1v1h-1zm-125 1h1v1h-1zm1 2h1v1h-1zm1 2h1v1h-1zm115 8h1v1h-1zm-1 1h1v1h-1zm-5 3h1v1h-1zm-96 1h1v1h-1zm95 0h1v1h-1zm-92 1h1v1h-1zm3 1h1v1h-1zm83 0h1v1h-1z"/>
		<path id="Path 4" fill-rule="evenodd" class="s4" d="m28 3l2-1v1zm-3 0h1v1h-1zm103 22h1v1h-1zm-127 8h1v1h-1zm0 70h1v1h-1zm2 7l-1-2h1zm124 3h1l-1 2zm-121 4h1v1h-1zm1 2h1v1h-1zm1 1h1v1h-1zm6 6h1v1h-1zm1 1h1v1h-1zm101 0h1v1h-1zm-99 1h1v1h-1zm2 1h1v1h-1zm93 0h1v1h-1zm-2 1h1v1h-1z"/>
		<path id="Path 5" class="s5" d="m32 3v-1h3v1zm67-1h1v1h-1zm-76 2h1v1h-1zm-2 1h1v1h-1zm90 0h1v1h-1zm-92 1h1v1h-1zm-2 1h1v1h-1zm97 0h1v1h-1zm-98 1h1v1h-1zm-2 1h1v1h-1zm103 0h1v1h-1zm-104 1h1v1h-1zm105 0h1v1h-1zm-106 1h1v1h-1zm107 0h1v1h-1zm1 1h1v1h-1zm-110 1h1v1h-1zm111 0h1v1h-1zm1 1h1v1h-1zm-115 3h1v1h-1zm117 0h1v1h-1zm-118 1h1v1h-1zm119 0h1v1h-1zm1 2h1v1h-1zm-122 2h1v1h-1zm-2 85h1v1h-1zm1 4h1v1h-1zm1 2h1v1h-1zm122 2h1v1h-1zm-119 3h1v1h-1zm2 3h1v1h-1zm1 1h1v1h-1zm1 1h1v1h-1zm109 0h1v1h-1zm-108 1h1v1h-1zm107 0h1v1h-1zm-106 1h1v1h-1zm105 0h1v1h-1zm-1 1h1v1h-1zm-101 1h1v1h-1zm99 0h1v1h-1zm-9 4h1v1h-1z"/>
		<path id="Path 6" fill-rule="evenodd" class="s6" d="m35 3v-1h11zm63 0l-6-1h6zm9 1h1v1h-1zm22 27h1v1h-1zm-96 102v-1l5 1zm6 0l6-1v1z"/>
		<path id="Path 7" class="s7" d="m31 2h1v1h-1zm69 0h1v1h-1zm-74 1h1v1h-1zm79 0h1v1h-1zm3 1h1v1h-1zm-97 8h1v1h-1zm-2 2h1v1h-1zm-1 1h1v1h-1zm-3 5h1v1h-1zm122 3h1v1h-1zm-124 2h1v1h-1zm125 1h1v1h-1zm1 5v-2h1v2zm-1 79h1v1h-1zm-123 5h1v1h-1zm116 7h1v1h-1zm-99 8h1v1h-1zm3 1h1v1h-1zm49 1h1v1h-1zm26 0h1v1h-1z"/>
		<path id="Path 8" class="s8" d="m124 118h1v1h-1zm-79 14h1v1h-1z"/>
		<path id="Path 9" class="s9" d="m30 2h1v1h-1zm73 1v-1l2 1zm6 2v-1l2 1h-1zm-108 27h1v1h-1zm129 2h1v1h-1zm0 70v-2h1v2zm-129 0h1v1h-1zm128 5v-2h1v2zm-1 3h1v1h-1zm-2 4h1v1h-1zm-5 7h1v1h-1zm-94 10v-1h2v1zm75 0v-1h2v1z"/>
		<path id="Path 10" class="s10" d="m101 3v-1h2v1zm5 0h1v1h-1zm-104 25h1v1h-1zm-1 8v-2h1v2zm0 66v-24h1v24zm124 15h1v1h-1zm-3 4h1v1h-1zm-47 11h1v1h-1zm12 0h1v1h-1zm14 0h1v1h-1z"/>
		<path id="Path 11" class="s11" d="m123 120h1v1h-1z"/>
		<path id="Path 12" class="s12" d="m107 3h1v1h-1zm-105 24h1v1h-1zm120 95h1v1h-1z"/>
		<path id="Path 13" class="s13" d="m2 29h1v1h-1zm-1 49v-42h1v42zm128 28h1v1h-1zm-20 24h1v1h-1zm-80 2h1v1h-1zm43 1v-1h2v1zm4-1h1v1h-1zm9 0h1v1h-1z"/>
		<path id="Path 14" class="s14" d="m130 34v-2h1v2zm-129 71h1v1h-1z"/>
		<path id="Path 15" class="s15" d="m126 117h1v1h-1zm-1 2h1v1h-1zm-1 2h1v1h-1zm-1 1h1v1h-1z"/>
		<path id="Path 16" class="s16" d="m125 118h1v1h-1zm-1 2v-1h1v1 1h-1zm-1 1h1v1h-1zm-37 11h1v1h-1z"/>
		<path id="Path 17" class="s1" d="m50 10v-1h3v1h-1zm7 0v-1h3v1h-1zm14 0v-1h2v1h-1zm9 0v-1h7v1h-6zm-51 0h1v1h-1zm72 1v-1h2v1h-1zm-75 0h1v1h-1zm79 0h1v1h-1zm2 1h1v1h-1zm2 1h1v1h-1zm-89 1h1v1h-1zm92 1h1v1h-1zm-95 1h1v1h-1zm96 0h1v1h-1zm1 1h1v1h-1zm-99 1h1v1h-1zm100 0h1v1h-1zm-101 1h1v1h-1zm102 0h1v1h-1zm-104 3h1v1h-1zm106 0h1v1h-1zm2 4h1v1h-1zm-110 1h1v1h-1zm111 3v-1h1v2h-1zm-112 3v-2h1v1 1zm113 4v-3h1v70h-1v-1-1-9-1-4-1-1-13-2-1-3-15-2-11zm-113 67v-2h1v2zm112 2h1v1h-1zm-111 1h1v1h-1zm110 2h1v1h-1zm-117 1h1v1h-1zm8 0h1v1h-1zm108 1h1v1h-1zm-115 1h1v1h-1zm8 0h1v1h-1zm115 0h1v1h-1zm-9 1h1v1h-1zm-113 1h1v1h-1zm8 0h1v1h-1zm1 1h1v1h-1zm103 0h1v1h-1zm-111 1h1v1h-1zm110 0h1v1h-1zm-1 1h1v1h-1zm-2 2h1v1h-1zm-104 1h1v1h-1zm10 0h1v1h-1zm93 0h1v1h-1zm-90 2h1v1h-1zm87 0h1v1h-1zm-85 1h1v1h-1zm82 1v-1h1 1zm-79 0h1v1h-1zm76 1v-1h1 1v1zm-89 0h1v1h-1zm18 1v-1h1 7 3v1zm12 0v-1h4 14 1 6 4 6 1v1zm72 0h1v1h-1zm-11 5h1v1h-1z"/>
		<path id="Path 18" fill-rule="evenodd" class="s2" d="m32 10l18-1v1zm28 0v-1h11v1zm27 0v-1l13 1zm-59 0h1v1h-1zm75 0h1v1h-1zm-78 1h1v1h-1zm81 0h1v1h-1zm-83 1h1v1h-1zm85 0h1v1h-1zm-87 1h1v1h-1zm-2 1h1v1h-1zm92 0h1v1h-1zm-93 1h1v1h-1zm-2 1h1v1h-1zm-3 4h1v1h-1zm104 0h1v1h-1zm1 1h1v1h-1zm1 2h1v1h-1zm-108 1h1v1h-1zm109 1h1v1h-1zm-110 1h1v1h-1zm111 2h1v1h-1zm-112 3l1-2v2zm113 1l1 2h-1zm-112 74l-1-2h1zm112-2h1v1h-1zm-120 2h1v1h-1zm119 1h1v1h-1zm-111 1h1v1h-1zm118 1h1v1h-1zm-8 1h1v1h-1zm-109 1h1v1h-1zm108 1h1v1h-1zm-107 1h1v1h-1zm114 0h1v1h-1zm-8 1h1v1h-1zm-111 3h1v1h-1zm8 0h1v1h-1zm-7 1h1v1h-1zm8 0h1v1h-1zm1 1h1v1h-1zm1 1h1v1h-1zm-8 1h1v1h-1zm10 0h1v1h-1zm91 0h1v1h-1zm10 0h1v1h-1zm-110 1h1v1h-1zm10 0h1v1h-1zm99 0h1v1h-1zm-108 1h1v1h-1zm11 0h1v1h-1zm96 0h1v1h-1zm-106 1h1v1h-1zm13 0h1v1h-1zm79 0h1v1h-1zm13 0h1v1h-1zm-86 2l-2-1h2zm11-1h1v1h-1zm37 1v-1h23zm37-1h1v1h-1zm-101 1h1v1h-1zm1 1h1v1h-1zm97 0h1v1h-1zm-95 1h1v1h-1zm93 0h1v1h-1zm-91 1h1v1h-1zm89 0h1v1h-1zm-87 1h1v1h-1zm85 0h1v1h-1zm-82 1h1v1h-1zm50-122h3-1-1z"/>
		<path id="Path 19" class="s3" d="m24 3h1v1h-1zm88 2h1v1h-1zm6 4h1v1h-1zm-106 1h1v1h-1zm38 1v-1h2zm7 0v-1h2v1zm15-1h1v1h-1zm8 0h1v1h-1zm7 0h1v1h-1zm-58 1h1v1h-1zm-19 1h1v1h-1zm16 0h1v1h-1zm-17 1h1v1h-1zm14 0h1v1h-1zm84 0h1v1h-1zm2 1h1v1h-1zm-89 1h1v1h-1zm90 0h1v1h-1zm-103 1h1v1h-1zm12 0h1v1h-1zm93 0h1v1h-1zm12 0h1v1h-1zm-118 1h1v1h-1zm107 0h1v1h-1zm12 0h1v1h-1zm-109 1h1v1h-1zm98 0h1v1h-1zm-99 1h1v1h-1zm100 0h1v1h-1zm11 0h1v1h-1zm-122 2h1v1h-1zm113 1h1v1h-1zm2 3l-1-2h1v1zm-107-1h1v1h-1zm116 0h1v1h-1zm-8 3l-1-2h1v1zm-109 0v-1h1l-1 2zm110 3l-1-2h1v1zm-111 1h1v1h-1zm111 8v-2h1v2zm0 13v-2h1v2zm0 18v-3h1v3zm0 3v-2h1v2zm0 13h1v1h-1zm0 6v-4h1v4zm0 10v-9h1v9zm0 1h1v1h-1zm-110 5v-1l1 2h-1zm108 3l1-2v1 1zm-1 1h1v1h-1zm-92 12v-1l2 1h-1zm78 0l2-1v1h-1zm-74 1v-1h3v1h-1zm10 0v-1h8v1h-4-1zm22-1h1v1h-1zm7 1v-1h4v1zm10 0v-1h9v1h-8zm10 0v-1h4v1zm8 0v-1h4v1z"/>
		<path id="Path 20" class="s4" d="m22 4h1v1h-1zm-2 1h1v1h-1zm-2 1h1v1h-1zm95 0h1v1h-1zm-97 1h1v1h-1zm99 0h1v1h-1zm-100 1h1v1h-1zm101 0h1v1h-1zm-103 1h1v1h-1zm46 1h1v1h-1zm22 1v-1h6v1zm38-1h1v1h-1zm-91 1h1v1h-1zm92 0h1v1h-1zm1 1h1v1h-1zm1 1h1v1h-1zm-105 4h1v1h-1zm-4 5h1v1h-1zm-3 10h1v1h-1zm111 5v-3h1v3zm0 13v-11h1v11zm0 17v-15h1v15zm0 3h1v1h-1zm0 16v-13h1v13zm0 1h1v1h-1zm0 5h1v1h-1zm-111 12v-2l1 2zm111-2h1v1h-1zm-88 23v-1h7v1zm15 0v-1h14v1zm25 0v-1h6v1zm15-1h1v1h-1zm13 0h1v1h-1z"/>
		<path id="Path 21" class="s5" d="m53 9h1v1h-1zm3 0h1v1h-1zm21 0h1v1h-1zm-47 2v-1h2 1v1zm69 0v-1h1 1v1zm-72 0h1v1h-1zm76 1v-1h1 1v1zm-79 0h1v1h-1zm82 0h1v1h-1zm-84 1h1v1h-1zm86 0h1v1h-1zm-87 1h1v1h-1zm89 0h1v1h-1zm-91 1h1v1h-1zm92 0h1v1h-1zm12 0h1v1h-1zm-105 1h1v1h-1zm-2 1h1v1h-1zm100 3h1v1h-1zm-103 1h1v1h-1zm104 0h1v1h-1zm-105 2h1v1h-1zm107 1h1v1h-1zm-108 1h1v1h-1zm109 2h1v1h-1zm-110 1h1v1h-1zm111 3h1v1h-1zm-112 4v-2h1v2zm0 22v-9h1v9zm0 45v-14h1v14zm1 4v-1h1v2h-1zm1 3h1v1h-1zm1 2h1v1h-1zm1 2h1v1h-1zm104 1h1v1h-1zm-102 2h1v1h-1zm1 1h1v1h-1zm1 1h1v1h-1zm1 1h1v1h-1zm93 1h1v1h-1zm-90 1h1v1h-1zm2 1h1v1h-1zm79 2h1v1h-1z"/>
		<path id="Path 22" class="s6" d="m129 105h1v1h-1zm-4 11h1v1h-1zm-1 1h1v1h-1z"/>
		<path id="Path 23" class="s7" d="m54 10v-1h2v1zm19 0v-1h2v1h-1zm3-1h1v1h-1zm2 1v-1h1 1v1h-1zm-45 1v-1h2v1zm65-1h1v1h-1zm-73 2h1v1h-1zm-11 8h1v1h-1zm-4 9h1v1h-1zm111 3h1v1h-1zm-112 16v-13h1v13zm0 20v-11h1v11zm0 20v-9h1v9zm112 17h1v1h-1zm-1 3h1v1h-1zm-10 13h1v1h-1zm-85 2h1v1h-1zm3 2v-1h2v1z"/>
		<path id="Path 24" class="s8" d="m123 119h1v1h-1zm-1 1h1v1h-1z"/>
		<path id="Path 25" class="s9" d="m35 10h1v1h-1zm11 1v-1h4v1zm11 0l-3-1h2 1zm3-1h1v1h-1zm9 1v-1h2 1v1h-2zm4-1h1v1h-1zm15 0h1v1h-1zm-77 1h1v1h-1zm91 0h1v1h-1zm3 1h1v1h-1zm-97 2h1v1h-1zm-3 5h1v1h-1zm7 6h1v1h-1zm-10 1h1v1h-1zm8 4h1v1h-1zm111 3h1v1h-1zm-111 71h1v1h-1zm111 0h1v1h-1zm-1 3h1v1h-1zm-57 18v-1h6v1zm30 0v-1h4v1z"/>
		<path id="Path 26" class="s10" d="m75 9h1v1h-1zm-39 2v-1h5v1zm54 0v-1h8v1zm-81 68v-11h1v11z"/>
		<path id="Path 27" class="s12" d="m41 11v-1h5v1zm20 0v-1h8v1h-7zm28-1h1v1h-1z"/>
		<path id="Path 28" class="s13" d="m114 118h1v1h-1zm-6 4h1v1h-1z"/>
		<path id="Path 29" class="s14" d="m108 3h1v1h-1zm-34 8v-1h1 1 1zm5-1h1v1h-1z"/>
		<path id="Path 30" class="s15" d="m70 11h-8 7z"/>
		<path id="Path 31" class="s0" d="m53 17v-2h1 3v4 4 1h-3-1v-5-1zm23 0v-2h3l1 1v2 2 1 1 2h-1l-1 1h-1l-1-1zm-31 3l2-1h2v1l1 3v2l1 1v1l1 1h1l1 1h2l1-1 1-1 1-1 1-1v-1l1-1v-2-1l1-1h1 8 1v1l1 4v2l1 1 1 1 1 1h1 1 1l1-1 1-1 1-1 1-2v-1-3l2-1h1l2 1h1l1 1 1 1v1l1 1v1l1 1v1 1 1 1 13 16l-1 1v1l-1 1v1l-1 1-1 1-1 1-1 1h-1l-1 1h-2-1-6-13-1-6-5-2-1-1l-1-1h-1l-1-1h-1l-1-1-1-1v-1l-1-1v-1l-1-1v-1-1-1-16-2-9-3-1l1-1v-1l1-1 1-1 1-1 1-1zm-27 29l6-1h7l1 1 1 1v1 2 2l-1 1h-3l-1 1v6 15 1l1 1v2 1 1l1 1v1l-2 1-1-1h-1l-1-1-1-1-1-1v-1l-1-1v-1l-1-1v-2-6-13l-1-1-1-1h-1l-1-1v-1l-1-1v-2l1-1zm82 0l1-1h11l1 1h1l1 1v4 1h-1l-1 1h-1l-1 1-1 23v1l-1 1-1 2-1 1-1 1h-1l-1 1-1-2v-1-1l1-1v-3-2l-2-21h-1l-1-1-1-1v-1-2-1zm-66 26l1-1h25 5 2 3 6 1 19 1 1v6 2l-1 1-1 1-1 1-1 1h-1l-1 1h-1-22-1-3-1-1-18-1-2-2l-2-1h-1l-1-1-1-1v-1l-1-1v-1-1-3zm29 18l13-1h1l13 1h1v2 2 1l-1 1h-1-1-2-1-1-2-1-10l-1 1v7l1 2 17 1h1l1 1h1l1 1v1l1 1v1 5h-2-2-2v-2l-1-1-14-1h-1l-1 1v1 1h-1-1l-6-1v-1l-2-1h-1-3-1-2l-6 1-1 1-1 2h-6v-3-2-1l1-1 1-1 1-1h1l1-1h1 4 4 1 1 1 2l4-1v-3-5-1l1-6z"/>
		<path id="Path 32" class="s17" d="m59 22v-4h2v1l-1 2v1zm14-4h1v1h-1zm-22 4v-3h1v5 1h-1zm23 2v-5h1v5l1 1h3 1 1v1l-1 1-1 1h-1-1-1l-1-1-1-1zm-22 2v-1h1 1 1 2 1v1 1l-1 1h-1-2-1l-1-1z"/>
		<path id="Path 33" class="s1" d="m53 14h1v1h-1zm4 5v-4h1v2 1 1zm-13 0h1v1h-1zm48 6h1v1h-1zm21 23h1v1h-1zm-80 5v-2h1v1 1zm65 0v-2h1v2zm-82 1h1v1h-1zm98 1h1v1h-1zm-2 1h1v1h-1zm-77 18v-1h11 7 1 2 3 1v1zm30 0v-1h2v1zm5 0v-1h6v1zm7 0v-1h1 3 8 2 4 1v1zm21 6v-6h1v6zm-70-2h1v1h-1zm-7 2h1v1h-1zm89 0h1v1h-1zm-88 2h1v1h-1zm4 4h1v1h-1zm2 1l2-1h1v2h-3zm10 0v-1l2 1zm55-1h1v1h-1zm-51 2v-1h2v1zm3 0v-1h18v1h-4-5-1-1zm24 0v-1h22v1h-9-1-8-2-1zm-7 5h1v1h-1zm9 16l-1-2h1v1zm-26 1v-1h1 1 1 1v1zm8-1h1v1h-1zm2 0h1v1h-1zm3 1v-1h2 2zm-15 0h1v1h-1zm-2 1h1v1h-1zm-1 1h1v1h-1zm-1 1h1v1h-1zm-1 3v-1h1v2h-1zm9 1l6-1v1h-2-1-1-1zm8-1h1v1h-1zm4 0h1v1h-1zm12 0h1v1h-1zm-1 1h1v1h-1zm-25 3l1-2v1 1zm17-1v-1l6 1v1h-4-1-1zm24 1v-2h1v2zm-17-1h1v1h-1zm-31 1h1v1h-1z"/>
		<path id="Path 34" class="s2" d="m54 15v-1h2 1v1zm22 0v-1h1 2v1zm3 0h1v1h-1zm-34 5v-1h1 1zm12 3v-4h1v4zm14-4h-8 5 1 1zm-28 1h1v1h-1zm-1 1h1v1h-1zm-1 1h1v1h-1zm-1 1h1v1h-1zm51 0h1v1h-1zm-52 2h1v1h-1zm-21 24v-1h6zm13-1h1v1h-1zm69 0h1v1h-1zm12 0h1v1h-1zm-95 1h1v1h-1zm15 0h1v1h-1zm67 0h1v1h-1zm15 0h1v1h-1zm-98 1h1v1h-1zm99 4v-4h1v1 2 1zm-5 26l1-23v22 1zm-76-6h1v1h-1zm-6 5h1v1h-1zm75 3h1v1h-1zm-74 2h1v1h-1zm34 9v-1h5 4 2 1 1zm27 0l-13-1h5 1 1 1 2 1 2zm-28 2v-1h1l-1 6v-1-2-1zm9 4h10-1-1-3-3-1zm17 11l-17-1h1 1 1 6 1 5 1 1zm4 3h1v1h-1zm1 7v-5h1v1 1 2 1zm-40-3v-1h2v1zm3 0v-1h3v1h-2zm4 0v-1l2 1h-1zm12 0v-1l14 1h-1-1zm-34 3v-3h1v3zm30-1h1v1h-1z"/>
		<path id="Path 35" fill-rule="evenodd" class="s3" d="m57 13h1v1h-1zm19 0h1v1h-1zm3 0h1v1h-1zm-21 1l1 2v1h-1zm22 0h1v1h-1zm-15 4v-1h2v1zm-21 1l2-1v1zm-2 0h1v1h-1zm-1 1h1v1h-1zm-1 1h1v1h-1zm52 2h1v1h-1zm-54 2h1v1h-1zm55 0l1 2h-1zm-62 22h1v1h-1zm83 0h1v1h-1zm1 1h1v1h-1zm1 1l1 2h-1zm-82 2h1v1h-1zm-19 3h1v1h-1zm101 0h1v1h-1zm-83 1h1v1h-1zm82 0h1v1h-1zm-98 1h1v1h-1zm15 0h1v1h-1zm82 0h1v1h-1zm-85 1h1v1h-1zm83 0h1v1h-1zm-93 9v-7h1v7zm20-5l-1-2h1zm0 1h1v1h-1zm1 2h1v1h-1zm1 1h1v1h-1zm2 1h1v1h-1zm5 2h1v1h-1zm3 1v-1h5v1zm11-1h1v1h-1zm-16 5v-1h7v1zm8 0v-1h2v1zm5 0v-1h19v1zm22 0v-1h8v1zm10 0v-1h4v1zm6-1h1v1h-1zm1 1h1v1h-1zm-65 1h1v1h-1zm-13 3l-1-2h1zm91 2h1v1h-1zm-91 1h1v1h-1zm13 1h1v1h-1zm-11 3h1v1h-1zm80 0h1v1h-1zm-79 1h1v1h-1zm12 0h1v1h-1zm-11 1h1v1h-1zm12 0h1v1h-1zm5 2h1v1h-1zm4 1v-1h7v1zm8-1h1v1h-1zm6 1v-1h4v1zm12 0v-1h2v1zm10-1h1v1h-1zm10 0h1v1h-1zm-23 4v-1h4v1zm16-1h1v1h-1zm3 0h1v1h-1zm4 1h1v1h-1zm0 6h1v1h-1zm-30 1h1v1h-1zm59 7h1v1h-1zm-75 2h1v1h-1zm2 0h1v1h-1zm11 1v-1h2v1zm22-1h1v1h-1zm6 0h1v1h-1zm-44 2l2-1v1zm-30 0h1v1h-1zm29 0h1v1h-1zm-1 1h1v1h-1zm-27 1h1v1h-1zm104 1h1v1h-1zm-102 2h1v1h-1zm79 0h1v1h-1zm22 0h1v1h-1zm-100 1h1v1h-1zm21 0h1v1h-1zm78 0h1v1h-1zm-98 1h1v1h-1zm30 0h1v1h-1zm2 0h1v1h-1zm2 1v-1h2v1zm6 0v-1h4v1zm14-1h1v1h-1zm13 0h1v1h-1zm10 2v-2h1v2zm20-2h1v1h-1zm-96 1h1v1h-1zm28 0h1v1h-1zm15 0h1v1h-1zm24 2v-2h1v2zm28-2h1v1h-1zm-94 1h1v1h-1zm93 0h1v1h-1zm-67 1h1v1h-1zm18 0h1v1h-1zm5 0h1v1h-1zm42 0h1v1h-1zm-88 1h1v1h-1zm87 0h1v1h-1zm-85 1h1v1h-1z"/>
		<path id="Path 36" fill-rule="evenodd" class="s4" d="m56 13h1v1h-1zm-17 10h1v1h-1zm-1 3h1v1h-1zm55 1h1v1h-1zm-76 20h1v1h-1zm96 0h1v1h-1zm-97 1h1v1h-1zm-1 1h1v1h-1zm101 4h1v1h-1zm-60 16v-1h6v1zm-21 4l11-1v1zm18-1h1v1h-1zm3 1v-1h3v1zm22 0v-1h3v1zm11 0v-1h2v1zm-60 6l1 3h-1zm-8 3h1v1h-1zm5 5h1v1h-1zm14 1l-2-1h2zm53-1h1v1h-1zm-39 2v-1h5v1zm19 0v-1h8v1zm9 0v-1h9v1zm-20 3l6-1v1zm-1 7v-2h1v2zm-1 9l1-1h1v2h-2zm21 1v-1h5v1zm-67 5h1v1h-1zm80 2h1v1h-1zm-56 4l-1-3h1zm10-3h1v1h-1zm2 0h1v1h-1zm3 1v-1h4v1zm19 0v-1h12v1zm-26 1h1v1h-1zm23 1l1-1h1l-2 2zm25-1h1v1h-1zm-74 1h1v1h-1zm44 1v-1h4v1zm25 0v-1h2v1zm18 1h1v1h-1z"/>
		<path id="Path 37" class="s5" d="m54 14v-1h2v1zm23 0v-1h2v1zm-20 0h1v1h-1zm22 0h1v1h-1zm-27 2v-1h1v2h-1zm28 0v-1h1v1 2h-1zm-17 3v-1h2 2 1v1zm7-1h1v1h-1zm-27 1h1v1h-1zm-1 1h1v1h-1zm-1 1h1v1h-1zm-1 1h1v1h-1zm52 2h1v1h-1zm-54 15v-9h1v9zm0 18v-16h1v16zm-20-9v-1h13v1h-7zm83 0v-1h12v1h-1zm-84 0h1v1h-1zm82 0h1v1h-1zm15 0h1v1h-1zm-98 1h1v1h-1zm99 0h1v1h-1zm-100 5v-4h1v1 2 1zm18-4h1v1h-1zm65 0h1v1h-1zm18 3v-2h1v2zm-83 2v-2h1v2zm65-2h1v1h-1zm17 1h1v1h-1zm-98 2l-1-1h1l1 1zm82-1h1v1h-1zm-70 2v-1h3v1h-2zm72-1h1v1h-1zm12 0h1v1h-1zm-2 23v-22h1v1 21zm-91-20v-1h1v13h-1v-5zm19 2h1v1h-1zm-11 17v-15h1v15zm62-14h1v1h-1zm-56 9h1v1h-1zm63 0h1v1h-1zm-64 4v-2h1v2zm-13 3v-3h1v2 1zm13 0h1v1h-1zm65 2v-2h1v2zm-77-1h1v1h-1zm8 1h1v1h-1zm67 2h1v1h-1zm-1 1h1v1h-1zm-70 1h1v1h-1zm12 0h1v1h-1zm-10 1h1v1h-1zm13 1v-1h2v1h-1zm51 0v-1h1 1v1h-1zm-6 4v-1h2v1zm-23 0h1v1h-1zm29 3v-2h1v2zm0 2h1v1h-1zm-7 2h1v1h-1zm2 1v-1h2v1zm-16 7v-7h1v7zm0 11h1v1h-1zm23 2h1v1h-1z"/>
		<path id="Path 38" fill-rule="evenodd" class="s6" d="m75 17v-2h1v2zm-14 2h1v1h-1zm22 1v-1h2zm5 0l-2-1h2zm-38 3l-1-3h1zm23 1l-1-4h1zm-16-1h1v1h-1zm3 0h1v1h-1zm22 1h1l-1 2zm-23 1h1v1h-1zm14 1h1v1h-1zm-22 1h1v1h-1zm2 1h1v1h-1zm3 0h1v1h-1zm19 0h1v1h-1zm4 0h1v1h-1zm23 29v-1l0.1 1.1zm2 20h-1v-10.5zm-1-10.5l-0.9-9.4 0.9 0.9zm0 12.5h1v3h-1zm5 5l1-2v2zm-44 3h1v1h-1zm4 0h1v1h-1zm21 23h1v1h-1z"/>
		<path id="Path 39" class="s7" d="m75 14h1v1h-1zm-23 3h1v1h-1zm-6 1h1v1h-1zm22 0h1v1h-1zm12 2v-2h1v1 1zm2 2v-2h1v3h-1zm8-1h1v1h-1zm1 1h1v1h-1zm-52 2h1v1h-1zm-1 6v-3h1v3zm55-2h1v1h-1zm0 15v-13h1v13zm-55-2v-2h1v2zm-6 7h1v1h-1zm1 1h1v1h-1zm65 0h1v1h-1zm0 5h1v1h-1zm-80 2h1v1h-1zm82 0h1v1h-1zm-72 7v-6h1v1 5zm10-5h1v1h-1zm2 5h1v1h-1zm49 2h1v1h-1zm-44 2h1v1h-1zm-25 8v-4h1v6h-1zm47-1v-1h3v1zm9-1h1v1h-1zm20 0h1v1h-1zm-63 7v-3h1v3zm-11 3h1v1h-1zm7 0h1v1h-1zm5 0h1v1h-1zm63 0h1v1h-1zm-74 1h1v1h-1zm1 1h1v1h-1zm6 0h1v1h-1zm72 2v-2h1l1 2h1v1h-1-2zm-8-1h1v1h-1zm-12 5h1v1h-1zm8 1h1v1h-1zm1 5v-2h1v2zm-9 3v-1h2v1zm6-1h1v1h-1zm-44 10h1v1h-1zm-2 1h1v1h-1zm50 2h1v1h-1zm-54 2h1v1h-1zm55 0h1v1h-1zm-32 3h1v1h-1zm24 0h1v1h-1zm-46 4v-1h6v1h-5zm48 0v-1h2v1zm4 0v-1h2v1z"/>
		<path id="Path 40" class="s8" d="m75 18v-1h1v7h-1v-5zm-23 0h1v1h-1zm32 0h1v1h-1zm-35 1h1v1h-1zm23 0h1v1h-1zm-12 3v-1h1v2h-1zm20-1h1v1h-1zm-26 4v-1h3v1h-2zm25-1h1v1h-1zm-29 1h1v1h-1zm31 1h1v1h-1zm-7 1h1v1h-1zm6 0h1v1h-1zm-26 2v-1h2v1zm22-1h1v1h-1zm2 0h1v1h-1zm14 32h1v1h-1zm-1 2h1v1h-1zm18 20h1v1h-1zm-44 6v-1h3v1z"/>
		<path id="Path 41" class="s18" d="m61 18h1v1h-1zm11 0h1v1h-1zm-20 6v-5h1v5zm8-3l1-2v1 1zm-10 2v-1h1v3h-1zm30 1v-2h1v2zm-27 0h1v1h-1zm4 0h1v1h-1zm2 0h1v1h-1zm14 2v-2h1v2zm2-2h1v1h-1zm6 1h1v1h-1zm-30 1h1v1h-1zm7 0h1v1h-1zm19 2h1v1h-1zm15 33h1v1h-1zm16 23h1v1h-1z"/>
		<path id="Path 42" fill-rule="evenodd" class="s9" d="m53 13h1v1h-1zm22 0h1v1h-1zm-24 3h1v1h-1zm39 4h1v1h-1zm1 1h1v1h-1zm9 26h1v1h-1zm-66 5h1v1h-1zm67 5h1v1h-1zm-82 1h1v1h-1zm83 4v-4h1v4zm-12 3h1v1h-1zm-71 10v-9h1v9zm83 5v-14h1v14zm-16-13h1v1h-1zm-37 2v-1h2v1zm14 0v-1h13v1zm32 4v-1h2v1zm-62 0h1v1h-1zm78 7h1v1h-1zm-78 2h1v1h-1zm65 0h1v1h-1zm4 1h1v1h-1zm-72 1h1v1h-1zm4 0h1v1h-1zm67 3h1v1h-1zm-59 2v-1h3v1zm10-1h1v1h-1zm11 0h1v1h-1zm7 0h1v1h-1zm2 4v-1h2v1zm11-1h1v1h-1zm5 1v-1l2 1zm-27 4h1v1h-1zm10 3h1v1h-1zm9 1v-1h2v1zm9 0v-1h2zm-28 0h1v1h-1zm0 6h1v1h-1zm-15 2h1v1h-1zm2 1v-1h10v1zm24-1h1v1h-1zm2 1v-1h6v1zm13-1h1v1h-1zm31 3h1v1h-1zm-79 1h1v1h-1zm-1 1h1v1h-1zm55 0h1v1h-1zm-32 6h1v1h-1zm1 1h1v1h-1zm24 0h1v1h-1zm7 1h1v1h-1zm-53 0h-2 1z"/>
		<path id="Path 43" class="s10" d="m47 19v-1h1 1v1zm15-1h1v1h-1zm7 0h1v1h-1zm2 0h1v1h-1zm14 1v-1h2v1h-1zm-3 0h1v1h-1zm6 0h1v1h-1zm-8 1h1v1h-1zm13 9h1v1h-1zm0 30v-16h1v16zm-74-2h1v1h-1zm19 0h1v1h-1zm53 6h1v1h-1zm19 18h1v1h-1zm-3 4h1v1h-1zm-1 1h1v1h-1zm-62 1h1v1h-1zm31 4h1v1h-1zm-14 15v-5h1v5zm28 3h1v1h-1zm1 1h1v1h-1z"/>
		<path id="Path 44" class="s11" d="m74 18h1v1h-1zm-24 2v-1h1v3h-1zm23 0v-1h1v5h-1zm-14 4v-2h1v1 1zm-7 0h1v1h-1zm6 1v-1h1v1 1h-1zm22 0v-1h1 1v1h-1zm-29 0h1v1h-1zm58 58h1v1h-1z"/>
		<path id="Path 45" class="s12" d="m52 14h1v1h-1zm6 3h1v1h-1zm-9 1h1v1h-1zm33 1v-1h2v1h-1zm5 0v-1l2 1h-1zm-6 1v-1h1v1 2h-1v-1zm8-1h1v1h-1zm4 41v-1h1v2h-1zm-5 6h1v1h-1zm-12 3v-1h6v1zm26 14v-2h1v1 1zm3 4h1v1h-1zm-41 2v-1h1 3 1 1v1zm10 2h1v1h-1zm2 1v-1h6v1h-5zm-15 2h1v1h-1zm12 6v-1h3v1zm6-1h1v1h-1zm-8 9h1v1h-1zm2 0h1v1h-1zm18 2h1v1h-1z"/>
		<path id="Path 46" class="s13" d="m89 20h1v1h-1zm-7 3h1v1h-1zm-22 51v-1h5v1zm43 5v-2h1v2zm2 7h1v1h-1zm-42 1h1v1h-1zm22 12h1v1h-1zm-36 11v-1h4v1zm5-1h1v1h-1zm2 1v-1h2v1zm32-1h1v1h-1zm3 2h1v1h-1z"/>
		<path id="Path 47" class="s14" d="m74 14h1v1h-1zm7 4v-2l1 1v1 1h-1zm-34-1h1v1h-1zm16 1v-1h2v1zm4 0v-1h1l1 1h-1zm-49 39h1v1h-1zm84 9v-4h1v4zm-11-2h1v1h-1zm11 16h1v1h-1zm9 1h1v1h-1zm-50 14h1v1h-1zm27 13h1v1h-1zm2 1h1v1h-1zm2 2h1v1h-1zm1 1h1v1h-1zm-8 8h1v1h-1z"/>
		<path id="Path 48" class="s15" d="m68 17l6-2-2 3h-1-1-1zm-9 0v-1l4 1v1h-1-1zm-11 1v-1h3 1v1h-2-1zm34 0v-1l5 1h-2-1zm11 44v-1h1l-2 4v-1zm-4 4h1v1h-1zm-2 1h1v1h-1zm-5 1h1v1h-1zm29 14h1v1h-1zm-1 2h1v1h-1zm-1 1h1v1h-1zm-1 1h1v1h-1zm-2 1h1v1h-1zm-34 12h1v1h-1zm4 1v-1h3v1z"/>
		<path id="Path 49" class="s16" d="m72 18l2-3h1v2 1h-1-1zm-13 0v-1l2 1zm-9 1v-1h2v1h-1zm8 0v-1h1v4 2h-1v-1zm23 5v-2h1v1 1zm11 39v-1h1l-1 2zm18 20v-1h1v1 1h-1zm-1 1h1v1h-1zm-1 1h1v1h-1zm-1 1h1v1h-1z"/>
		<path id="Path 50" class="s17" d="m48 35v-2h1 3 25 7v24l-1 1-1 1h-1-30-1l-1-1-1-1v-1z"/>
		<path id="Path 51" class="s1" d="m28 56h1v1h-1zm-8 1h1v1h-1zm19 3h1v1h-1zm5 6h1v1h-1zm2 1h1v1h-1zm-12 15h1v1h-1zm63 0h1v1h-1zm-61 3h1v1h-1zm54 13h1v1h-1zm-20 1h1v1h-1z"/>
		<path id="Path 52" class="s2" d="m16 53h1v1h-1zm83 1h1v1h-1zm1 1h1v1h-1zm13 0h1v1h-1zm-2 1h1v1h-1zm-71 6h1v1h-1zm50 1h1v1h-1zm-1 1h1v1h-1zm-68 15h1v1h-1zm1 2h1v1h-1zm1 2h1v1h-1zm73 0h1v1h-1zm-72 1h1v1h-1zm71 0h1v1h-1zm-70 1h1v1h-1zm69 0h1v1h-1zm-67 1h1v1h-1zm65 0h1v1h-1zm12 0h1v1h-1zm-42 21v-1 3zm8 9h1v1h-1zm16 1h1v1h-1z"/>
		<path id="Path 53" class="s5" d="m32 55h1v1h-1z"/>
		<path id="Path 54" class="s6" d="m76 24h1v1h-1zm2 0h1v1h-1zm-31 33v-25 1 2 21zm37-25h1v1h-1zm-65 24h1v1h-1zm65 2h1v1h-1zm-36 1h1v1h-1zm35 0h1v1h-1zm9 0h1v1h-1zm-39 2l-3-1h1 2zm17 0v-1h11 1zm21 0h1v1h-1zm-3 4h1v1h-1zm-1 1h1v1h-1zm22 15h1v1h-1zm-2 3h1v1h-1zm-1 1h1v1h-1z"/>
		<path id="Path 55" class="s7" d="m41 64h1v1h-1zm1 1h1v1h-1zm43 2h1v1h-1zm-50 17h1v1h-1zm11 33h1v1h-1z"/>
		<path id="Path 56" class="s8" d="m47 32h1v1h-1zm30 1v-1h7v1zm-30 24h1v1h-1zm37 0h1v1h-1zm-36 1h1v1h-1zm1 1h1v1h-1zm33 0h1v1h-1zm-29 2v-1h17v1z"/>
		<path id="Path 57" class="s18" d="m79 25h-3 1 1zm-27 2h1v1h-1zm5 0h1v1h-1zm-9 5h1v1h-1zm4 1v-1h25v1zm-5 2v-2h1v2zm37 22v-24h1v24zm-37-1h1v1h-1zm36 2h1v1h-1zm-33 1h1v1h-1zm31 0h1v1h-1z"/>
		<path id="Path 58" class="s10" d="m102 57h1v1h-1z"/>
		<path id="Path 59" class="s11" d="m54 25h1v1h-1zm20 1h1v1h-1zm6 0h1v1h-1zm-5 1h1v1h-1zm4 0h1v1h-1zm-30 6v-1h3v1zm-2 23v-21h1v21zm4 4v-1h30v1h-11-17z"/>
		<path id="Path 60" class="s14" d="m70 17h1v1h-1z"/>
		<path id="Path 61" class="s0" d="m52 38l1-1h2 2l1 1v5h-1-2-2l-1-1zm11 3v-4h6v6h-1-2-1-1-1zm11 2v-6h5l1 1v1 2 1l-1 1zm-21 11l1-6h3l1 1v5h-1zm10-5l1-1h4l1 1v5h-1-4-1zm11 5v-6h5l1 1v5z"/>
		<path id="Path 62" class="s6" d="m52 37h1v1h-1zm5 0h1v1h-1zm22 0h1v1h-1zm-24 7v-1h2v1zm9-1h1v1h-1zm2 1v-1h2v1zm8 0v-1h5v1zm-22 5v-1h2l-1 6h-1v-1-2zm5-1h1v1h-1zm6 0h1v1h-1zm5 0h1v1h-1zm11 0h1v1h-1zm-26 7v-1h4v1zm11 0v-1h4v1zm10 0v-1h6v1z"/>
		<path id="Path 63" class="s8" d="m73 43v-6h1v6zm-11 0v-2h1v2zm-10 1v-1h1 2v1zm5-1h1v1h-1zm6 0h1v1h-1zm2 0h1v1h-1zm3 0h1v1h-1zm11 0h1v1h-1zm-6 11v-6h1v6zm-15 0v-5h1v5zm-6 0h1v1h-1zm5 0h1v1h-1zm6 0h1v1h-1zm5 0h1v1h-1z"/>
		<path id="Path 64" class="s18" d="m55 37v-1l3 1h-1zm7 4v-5h7v1h-6v4zm11-4h7-1-5zm-22 6l1-6v1 4 1zm7-5v-1 7-1zm11 5v-6h1l-1 7zm11-5v-1 7-1-1-1-2zm-18 5h1v1h-1zm11 0h1v1h-1zm-21 5l6-1v1h-1-3zm11 0v-1h6v1h-1-4zm10 0h7-1-5zm-15 0h1v1h-1zm4 6v-6h1v1 5zm7-5v-1h1l-1 7v-1zm11 0v-1 7-1zm-29 2v-2h1v2zm0 2h1v1h-1zm7 1h1v1h-1zm15 0h1v1h-1z"/>
		<path id="Path 65" fill-rule="evenodd" class="s11" d="m52 37l3-1v1zm17-1h1v1h-1zm-18 7h1v1h-1zm7 4h1v1h-1zm4 0h1v1h-1zm7 0h1v1h-1zm-18 1h1v1h-1zm0 5v-2h1v2zm0 1h1v1h-1zm11 0h1v1h-1zm-14 3h1v1h-1zm35 0h1v1h-1zm-34 1h1v1h-1zm33 0h1v1h-1zm-24-14h-6 3 2zm11 0h-6 1 1 1 2zm11 0h-6 5zm-22 11h-6 1 4zm11 0h-6 1 4zm11 0h-7 1z"/>
		<path id="Path 66" class="s6" d="m52 42h1v1h-1zm27 0h1v1h-1z"/>
		<path id="IT-3 Sitzplatzbuchungs-App" fill-rule="evenodd" class="s19" d="m176.4 81h-5.5v-28.4h5.5zm23.7-23.6h-7.3v23.6h-5.5v-23.6h-7.3v-4.7h20.1zm10.6 14.2h-10.4v-4.3h10.4zm22.1 0.8q0 2.2-0.8 3.9-0.9 1.7-2.5 2.8-1.6 1.2-3.9 1.8-2.2 0.6-4.9 0.6-1.5 0-3-0.1-1.4-0.3-2.4-0.5l0.5-4.7q2.3 0.8 5.2 0.8 3.2 0 4.6-1.1 1.5-1.2 1.5-2.9 0-1.8-1.5-2.9-1.4-1-4.5-1-1.2 0-2.2 0.1-1 0-2.1 0.1v-4.1h1.2q2 0 3.5-0.3 1.6-0.2 2.7-0.7 1.1-0.5 1.7-1.3 0.6-0.8 0.6-1.9 0-1.5-1.1-2.4-1.1-0.8-3.4-0.8-1.8 0-3.2 0.4-1.5 0.4-2.6 0.9l-0.5-4.5q1.6-0.6 3.4-0.9 1.8-0.4 4-0.4 4.6 0 6.8 1.9 2.3 1.9 2.3 4.8 0 2.4-1.3 4-1.2 1.5-3.5 2.2v0.1q1.2 0.1 2.2 0.7 1 0.5 1.7 1.3 0.8 0.8 1.1 1.9 0.4 1 0.4 2.2zm-45.2 40q0 1.9-0.8 3.6-0.8 1.7-2.2 2.9-1.4 1.2-3.5 2-2 0.6-4.4 0.6-3.8 0-6.6-0.7l0.6-5.3q1.4 0.6 2.9 0.9 1.5 0.3 3.3 0.3 0.9 0 1.8-0.2 0.9-0.2 1.5-0.6 0.7-0.5 1-1.1 0.4-0.8 0.4-1.8 0-1.3-0.9-2.1-0.9-0.8-2.2-1.4-1.3-0.6-2.9-1.1-1.5-0.6-2.9-1.5-1.3-0.9-2.1-2.3-0.9-1.5-0.9-3.8 0-1.9 0.7-3.5 0.7-1.6 2.1-2.7 1.3-1.1 3.3-1.7 2-0.6 4.6-0.6 1.2 0 2.5 0.1 1.4 0.1 2.6 0.4l-0.5 4.8q-1.2-0.4-2.4-0.6-1.2-0.2-2.5-0.2-2.4 0-3.5 1-1.1 0.9-1.1 2.4 0 1.2 0.9 2 0.9 0.8 2.2 1.4 1.4 0.6 2.9 1.2 1.6 0.6 3 1.6 1.3 0.9 2.2 2.3 0.9 1.4 0.9 3.7zm9.8 8.7h-5.4v-20.9h5.4zm0.7-27.2q0 1.3-1 2.3-1 0.9-2.4 0.9-1.4 0-2.3-0.9-1-1-1-2.3 0-1.4 1-2.3 0.9-1 2.3-1 1.4 0 2.4 1 1 0.9 1 2.3zm16.6 27q-1 0.3-2.2 0.4-1.2 0.2-2.3 0.2-1.7 0-2.9-0.3-1.2-0.4-1.9-1.1-0.7-0.8-0.9-2-0.3-1.3-0.3-3.1v-10.6h-3.6v-4.2h3.6v-6.4l5.3-1.4v7.8h5.1v4.2h-5.1v9.1q0 2 0.5 2.8 0.6 0.7 2 0.7 1.4 0 2.4-0.3zm18.2 0.1h-15v-3.8l8.4-12.3q-0.6 0.1-1.8 0.1-1.2 0-2.7 0h-3.7v-4.8h14.6v3.8l-8.2 12.2q1.8-0.1 2.3-0.1 0.5 0 2.4 0h3.7zm23.9-11.5q0 2.7-0.7 4.9-0.7 2.2-2.1 3.7-1.4 1.6-3.4 2.4-2.1 0.8-4.8 0.8-0.7 0-1.4 0-0.6-0.1-1.3-0.1v10h-5.3v-31h5q0 0.7-0.1 1.7 0 0.9-0.1 1.7 0.9-1.8 2.6-2.8 1.6-1.1 4-1.1 3.7 0 5.7 2.6 1.9 2.5 1.9 7.2zm-5.6 0.6q0-6-3.6-6-1 0-1.9 0.6-0.8 0.6-1.4 1.5-0.5 1-0.9 2.2-0.3 1.3-0.3 2.6v5.8q1.3 0.4 2.9 0.4 1.1 0 2.1-0.4 0.9-0.4 1.6-1.2 0.7-0.9 1.1-2.3 0.4-1.3 0.4-3.2zm15.4 10.9h-5.4v-30.6h5.4zm22.1 0h-5.1q0-1 0-1.8 0.1-0.9 0.2-1.8-0.8 1.8-2.6 2.9-1.8 1.1-4.1 1.1-2.9 0-4.4-1.7-1.6-1.7-1.6-4.3 0-1.8 0.9-3.2 0.8-1.3 2.4-2.2 1.6-1 3.8-1.4 2.2-0.4 5-0.4v-0.8q0-2.1-1-2.8-0.8-0.8-2.8-0.8-1.4 0-3.2 0.4-1.8 0.4-3.1 1l-0.8-4.1q1.5-0.6 3.6-1 2.1-0.5 4.2-0.5 2.5 0 4.1 0.5 1.6 0.5 2.5 1.4 1 1 1.4 2.3 0.4 1.4 0.4 3.2v8.6q0 1.3 0.1 2.6 0 1.4 0.1 2.8zm-5.5-8.7v-0.6q-2.1 0-3.4 0.2-1.4 0.3-2.2 0.7-0.7 0.4-1 1-0.3 0.6-0.3 1.2 0 1.1 0.7 1.8 0.7 0.7 1.8 0.7 1 0 1.8-0.4 0.8-0.5 1.4-1.2 0.5-0.7 0.8-1.6 0.4-0.9 0.4-1.8zm22.4 8.5q-1 0.3-2.2 0.4-1.2 0.2-2.3 0.2-1.8 0-2.9-0.3-1.2-0.4-1.9-1.1-0.7-0.8-1-2.1-0.3-1.2-0.3-3.1v-10.5h-3.6v-4.2h3.6v-6.4l5.3-1.5v7.9h5.1v4.2h-5.1v9.1q0 2 0.6 2.7 0.5 0.8 1.9 0.8 1.4 0 2.4-0.3zm18.2 0.1h-15v-3.8l8.4-12.3q-0.6 0-1.8 0.1-1.1 0-2.6 0h-3.7v-4.8h14.6v3.8l-8.3 12.2q1.9-0.1 2.3-0.1 0.5 0 2.5 0h3.6zm24-11.5q0 2.7-0.8 4.9-0.7 2.2-2.2 3.8-1.4 1.5-3.5 2.4-2.1 0.8-4.8 0.8-2.3 0-4.1-0.2-1.9-0.3-3.7-0.8v-30h5.4v8.9q0 1-0.1 2.1-0.1 1.2-0.2 2 0.8-1.7 2.4-2.7 1.7-1 3.9-1 3.8 0 5.7 2.6 2 2.5 2 7.2zm-5.6 0.6q0-5.9-3.6-5.9-1.1 0-1.9 0.6-0.8 0.5-1.4 1.4-0.6 1-0.9 2.2-0.3 1.2-0.3 2.5v5.9q1.1 0.4 2.8 0.4 1.1 0 2.1-0.4 1-0.4 1.6-1.2 0.8-0.9 1.1-2.3 0.5-1.3 0.5-3.2zm28.1 10.9h-5q0-0.7 0-1.8 0.1-1.1 0.3-1.9h-0.1q-1 1.8-2.7 3-1.8 1.1-4.4 1.1-1.8 0-3-0.5-1.1-0.5-1.9-1.4-0.7-0.9-1-2.1-0.3-1.2-0.3-2.6v-14.7h5.3v13.4q0 1.6 0.6 2.5 0.5 0.9 2 0.9 1 0 1.9-0.5 0.9-0.5 1.6-1.4 0.6-1 1-2.2 0.4-1.2 0.4-2.6v-10.1h5.3zm19.7-0.5q-1.3 0.4-2.8 0.7-1.6 0.2-3.1 0.2-2.2 0-4-0.6-1.7-0.6-2.9-1.8-1.2-1.2-1.9-3.1-0.6-2-0.6-4.6 0-2.4 0.6-4.5 0.7-2.1 2-3.7 1.3-1.5 3.2-2.4 2.1-0.9 4.8-0.9 1.2 0 2.4 0.2 1.2 0.2 2.2 0.5l-0.9 4.6q-0.8-0.3-1.8-0.5-1-0.3-2.1-0.3-2.4 0-3.6 1.8-1.2 1.8-1.2 4.7 0 1.3 0.2 2.4 0.3 1.1 0.9 1.9 0.6 0.8 1.5 1.3 0.9 0.4 2.3 0.4 2.2 0 4-0.8zm22.2 0.5h-5.3v-13.3q0-1.9-0.6-2.7-0.7-0.8-2-0.8-1 0-1.9 0.6-0.9 0.5-1.5 1.4-0.7 0.9-1.1 2.2-0.4 1.2-0.4 2.6v10h-5.3v-30.6h5.3c0 0.6 0 10.3 0 11.1q-0.1 1.2-0.3 2.1h0.1q0.9-1.8 2.7-2.8 1.8-1 4.1-1 1.8 0 2.9 0.5 1.3 0.5 2 1.4 0.7 0.9 1 2.1 0.3 1.2 0.3 2.6zm24 0h-5q0-0.7 0-1.8 0-1.1 0.2-1.9-1 1.8-2.8 3-1.7 1.1-4.3 1.1-1.8 0-3-0.5-1.2-0.5-1.9-1.4-0.7-0.9-1.1-2.1-0.2-1.2-0.2-2.6v-14.7h5.3v13.4q0 1.6 0.5 2.5 0.6 0.9 2.1 0.9 1 0 1.9-0.5 0.9-0.6 1.5-1.5 0.7-0.9 1-2.1 0.4-1.2 0.4-2.6v-10.1h5.4zm23.9 0h-5.3v-13.3q0-1.6-0.5-2.6-0.6-0.9-2.1-0.9-1 0-1.9 0.6-0.9 0.5-1.5 1.4-0.7 0.9-1.1 2.1-0.3 1.3-0.3 2.6v10.1h-5.4v-20.9h5.1q0 0.8-0.1 1.8 0 1.1-0.2 2 1-1.9 2.8-3 1.8-1.2 4.3-1.2 1.8 0 3 0.6 1.2 0.5 1.9 1.4 0.7 0.9 1 2.1 0.3 1.2 0.3 2.6zm24.8 2.2q0 1.7-0.8 3.2-0.8 1.5-2.3 2.6-1.5 1.2-3.6 1.8-2.1 0.7-4.7 0.7-4.2 0-6.6-1.6-2.4-1.5-2.4-4.6 0-1.7 1-3 0.9-1.4 2.2-2.1-0.9-0.5-1.5-1.3-0.5-0.9-0.5-2 0-1.2 0.7-2.2 0.7-1 1.8-1.5-1.5-0.8-2.3-2.2-0.8-1.4-0.8-3.5 0-1.5 0.5-3 0.6-1.4 1.8-2.5 1.1-1.1 2.9-1.7 1.7-0.7 4-0.7 1 0 1.7 0.1 0.8 0.2 1.7 0.4h7.1v4.2h-2.9q1 1 1 2.6 0 1.7-0.5 3.1-0.6 1.4-1.7 2.4-1.1 1-2.8 1.5-1.7 0.5-3.9 0.5-0.8 0-1.6-0.1-0.5 0.2-0.8 0.6-0.2 0.4-0.2 0.7 0 0.7 0.6 1 0.7 0.2 2.6 0.3l3.2 0.2q3.4 0.1 5.3 1.6 1.8 1.5 1.8 4.5zm-7.1-16q0-1.7-0.9-2.7-1-1-2.9-1-1.8 0-2.8 1.1-1 1-1 2.6 0 1.7 0.9 2.6 1.1 1 2.9 1 1.8 0 2.8-0.9 1-1 1-2.7zm1.8 16.7q0-1.1-0.8-1.8-0.7-0.8-2.5-0.9l-3.6-0.1h-1q-0.9 0.7-1.4 1.5-0.5 0.8-0.5 1.7 0 1.4 1.2 2.3 1.2 0.8 3.3 0.8 2.6 0 3.9-1 1.4-1 1.4-2.5zm22.2-9.5q0 1.6-0.6 2.9-0.7 1.3-1.9 2.2-1.2 0.9-2.9 1.4-1.7 0.5-3.8 0.5-1.2 0-2.4-0.1-1.2-0.2-2.2-0.5l0.4-4.5q0.9 0.5 2.1 0.7 1.1 0.2 2.3 0.2 1.5 0 2.5-0.6 0.9-0.6 0.9-1.6 0-1-0.7-1.5-0.6-0.5-1.6-0.9-0.9-0.3-2-0.7-1.1-0.4-2-1-0.9-0.7-1.6-1.7-0.6-1.1-0.6-2.9 0-1.4 0.5-2.6 0.5-1.2 1.6-2.1 1.1-0.9 2.8-1.4 1.6-0.6 3.9-0.6 0.9 0 1.9 0.1 1.1 0.1 1.9 0.3l-0.2 4.2q-0.9-0.2-1.9-0.3-0.9-0.2-1.9-0.2-1.6 0-2.4 0.6-0.7 0.6-0.7 1.5 0 0.9 0.7 1.4 0.6 0.5 1.6 0.9 0.9 0.4 2 0.8 1.2 0.4 2.1 1.1 1 0.6 1.6 1.7 0.6 1 0.6 2.7zm13.9-2.9h-10.4v-4.4h10.4zm28.1 9.5h-6l-2-5.8h-10.7l-2 5.8h-5.5l9.8-28.3h6.4zm-9.4-10.1l-2.9-8.4q-0.3-1.1-0.6-2-0.3-1-0.5-1.9h-0.1q-0.2 0.9-0.5 1.9-0.3 0.9-0.6 2l-2.9 8.4zm31.4-1.5q0 2.8-0.7 4.9-0.7 2.2-2.1 3.8-1.4 1.5-3.4 2.4-2.1 0.8-4.8 0.8-0.7 0-1.4-0.1-0.6 0-1.3-0.1v10h-5.4v-31h5q0 0.8 0 1.7 0 1-0.2 1.8h0.1q0.9-1.9 2.5-2.9 1.7-1 4.1-1 3.7 0 5.6 2.6 2 2.5 2 7.1zm-5.6 0.6q0-5.9-3.6-5.9-1 0-1.9 0.6-0.8 0.5-1.4 1.5-0.6 0.9-0.9 2.2-0.3 1.2-0.3 2.5v5.8q1.3 0.4 2.8 0.4 1.2 0 2.1-0.4 1-0.3 1.7-1.2 0.7-0.9 1.1-2.2 0.4-1.3 0.4-3.3zm29.1-0.6q0 2.8-0.7 4.9-0.7 2.2-2.1 3.8-1.4 1.5-3.5 2.4-2 0.8-4.7 0.8-0.8 0-1.4-0.1-0.6 0-1.3-0.1v10h-5.4v-31h5q0 0.8 0 1.7-0.1 1-0.2 1.8h0.1q0.9-1.9 2.5-2.9 1.7-1 4-1 3.8 0 5.7 2.6 2 2.5 2 7.1zm-5.6 0.6q0-5.9-3.6-5.9-1.1 0-1.9 0.6-0.8 0.5-1.4 1.5-0.6 0.9-0.9 2.2-0.3 1.2-0.3 2.5v5.8q1.3 0.4 2.8 0.4 1.1 0 2.1-0.4 1-0.3 1.6-1.2 0.8-0.9 1.1-2.2 0.5-1.3 0.5-3.3z"/>
	</g>
</svg>