<svg version="1.2" xmlns="http://www.w3.org/2000/svg" viewBox="0 0 595 137" width="595" height="137">
	<title>logo_ibb_plain-svg</title>
	<style>
		.s0 { fill: #00adce } 
		.s1 { fill: #bbe5ee } 
		.s2 { fill: #5fcde2 } 
		.s3 { fill: #1c1919 } 

		@media (prefers-color-scheme: dark) {
            .s3 { fill: white; }
        }
	</style>
	<g id="Layer">
		<path id="Layer" class="s0" d="m0.3 18.5c0-10.1 8.1-18.2 18.1-18.2 10.1 0 18.2 8.1 18.2 18.2 0 10-8.1 18.1-18.2 18.1-10 0-18.1-8.1-18.1-18.1z"/>
		<path id="Layer" class="s0" d="m0.3 68.1c0-10 8.1-18.2 18.1-18.2 10.1 0 18.2 8.2 18.2 18.2 0 10-8.1 18.1-18.2 18.1-10 0-18.1-8.1-18.1-18.1z"/>
		<path id="Layer" class="s0" d="m0.3 117.7c0-10 8.1-18.1 18.1-18.1 10.1 0 18.2 8.1 18.2 18.1 0 10-8.1 18.2-18.2 18.2-10 0-18.1-8.2-18.1-18.2z"/>
		<path id="Layer" class="s1" d="m99.5 117.7c0-10 8.2-18.1 18.2-18.1 10 0 18.2 8.1 18.2 18.1 0 10-8.2 18.2-18.2 18.2-10 0-18.2-8.2-18.2-18.2z"/>
		<path id="Layer" class="s2" d="m49.9 117.7c0-10 8.1-18.1 18.2-18.1 10 0 18.1 8.1 18.1 18.1 0 10-8.1 18.2-18.1 18.2-10.1 0-18.2-8.2-18.2-18.2z"/>
		<path id="Layer" class="s1" d="m99.5 68.1c0-10 8.2-18.2 18.2-18.2 10 0 18.2 8.2 18.2 18.2 0 10-8.2 18.1-18.2 18.1-10 0-18.2-8.1-18.2-18.1z"/>
		<path id="Layer" class="s2" d="m49.9 68.1c0-10 8.1-18.2 18.2-18.2 10 0 18.1 8.2 18.1 18.2 0 10-8.1 18.1-18.1 18.1-10.1 0-18.2-8.1-18.2-18.1z"/>
		<path id="IT-3 Sitzplatzbuchungs-App" class="s3" aria-label="IT-3
Sitzplatzbuchungs-App"  d="m174.4 85h-5.5v-28.4h5.5zm23.7-23.6h-7.3v23.6h-5.5v-23.6h-7.3v-4.7h20.1zm10.6 14.2h-10.4v-4.3h10.4zm22.1 0.8q0 2.2-0.8 3.9-0.9 1.7-2.5 2.8-1.6 1.2-3.9 1.8-2.2 0.6-4.9 0.6-1.5 0-3-0.1-1.4-0.3-2.4-0.5l0.5-4.7q2.3 0.8 5.2 0.8 3.2 0 4.6-1.1 1.5-1.2 1.5-2.9 0-1.8-1.5-2.9-1.4-1-4.5-1-1.2 0-2.2 0.1-1 0-2.1 0.1v-4.1h1.2q2 0 3.5-0.3 1.6-0.2 2.7-0.7 1.1-0.5 1.7-1.3 0.6-0.8 0.6-1.9 0-1.5-1.1-2.4-1.1-0.8-3.4-0.8-1.8 0-3.2 0.4-1.5 0.4-2.6 0.9l-0.5-4.5q1.6-0.6 3.4-0.9 1.8-0.4 4-0.4 4.6 0 6.8 1.9 2.3 1.9 2.3 4.8 0 2.4-1.3 4-1.2 1.5-3.5 2.2v0.1q1.2 0.1 2.2 0.7 1 0.5 1.7 1.3 0.8 0.8 1.1 1.9 0.4 1 0.4 2.2zm-45.2 40q0 1.9-0.8 3.6-0.8 1.7-2.2 2.9-1.4 1.2-3.5 2-2 0.6-4.4 0.6-3.8 0-6.6-0.7l0.6-5.3q1.4 0.6 2.9 0.9 1.5 0.3 3.3 0.3 0.9 0 1.8-0.2 0.9-0.2 1.5-0.6 0.7-0.5 1-1.1 0.4-0.8 0.4-1.8 0-1.3-0.9-2.1-0.9-0.8-2.2-1.4-1.3-0.6-2.9-1.1-1.5-0.6-2.9-1.5-1.3-0.9-2.1-2.3-0.9-1.5-0.9-3.8 0-1.9 0.7-3.5 0.7-1.6 2.1-2.7 1.3-1.1 3.3-1.7 2-0.6 4.6-0.6 1.2 0 2.5 0.1 1.4 0.1 2.6 0.4l-0.5 4.8q-1.2-0.4-2.4-0.6-1.2-0.2-2.5-0.2-2.4 0-3.5 1-1.1 0.9-1.1 2.4 0 1.2 0.9 2 0.9 0.8 2.2 1.4 1.4 0.6 2.9 1.2 1.6 0.6 3 1.6 1.3 0.9 2.2 2.3 0.9 1.4 0.9 3.7zm9.8 8.7h-5.4v-20.9h5.4zm0.7-27.2q0 1.3-1 2.3-1 0.9-2.4 0.9-1.4 0-2.3-0.9-1-1-1-2.3 0-1.4 1-2.3 0.9-1 2.3-1 1.4 0 2.4 1 1 0.9 1 2.3zm16.6 27q-1 0.3-2.2 0.4-1.2 0.2-2.3 0.2-1.7 0-2.9-0.3-1.2-0.4-1.9-1.1-0.7-0.8-0.9-2-0.3-1.3-0.3-3.1v-10.6h-3.6v-4.2h3.6v-6.4l5.3-1.4v7.8h5.1v4.2h-5.1v9.1q0 2 0.5 2.8 0.6 0.7 2 0.7 1.4 0 2.4-0.3zm18.2 0.1h-15v-3.8l8.4-12.3q-0.6 0.1-1.8 0.1-1.2 0-2.7 0h-3.7v-4.8h14.6v3.8l-8.2 12.2q1.8-0.1 2.3-0.1 0.5 0 2.4 0h3.7zm18.3-10.9q0-6-3.6-6-1 0-1.9 0.6-0.8 0.6-1.4 1.5-0.5 1-0.9 2.2-0.3 1.3-0.3 2.6v5.8q1.3 0.4 2.9 0.4 1.1 0 2.1-0.4 0.9-0.4 1.6-1.2 0.7-0.9 1.1-2.3 0.4-1.3 0.4-3.2zm5.6-0.6q0 2.7-0.7 4.9-0.7 2.2-2.1 3.7-1.4 1.6-3.4 2.4-2.1 0.8-4.8 0.8-0.7 0-1.4 0-0.6-0.1-1.3-0.1v10h-5.3v-31h5q0 0.7-0.1 1.7 0 0.9-0.1 1.7 0.9-1.8 2.6-2.8 1.6-1.1 4-1.1 3.7 0 5.7 2.6 1.9 2.5 1.9 7.2zm9.8 11.5h-5.4v-30.6h5.4zm16.6-8.7v-0.6q-2.1 0-3.4 0.2-1.4 0.3-2.2 0.7-0.7 0.4-1 1-0.3 0.6-0.3 1.2 0 1.1 0.7 1.8 0.7 0.7 1.8 0.7 1 0 1.8-0.4 0.8-0.5 1.4-1.2 0.5-0.7 0.8-1.6 0.4-0.9 0.4-1.8zm5.5 8.7h-5.1q0-1 0-1.8 0.1-0.9 0.2-1.8-0.8 1.8-2.6 2.9-1.8 1.1-4.1 1.1-2.9 0-4.4-1.7-1.6-1.7-1.6-4.3 0-1.8 0.9-3.2 0.8-1.3 2.4-2.2 1.6-1 3.8-1.4 2.2-0.4 5-0.4v-0.8q0-2.1-1-2.8-0.8-0.8-2.8-0.8-1.4 0-3.2 0.4-1.8 0.4-3.1 1l-0.8-4.1q1.5-0.6 3.6-1 2.1-0.5 4.2-0.5 2.5 0 4.1 0.5 1.6 0.5 2.5 1.4 1 1 1.4 2.3 0.4 1.4 0.4 3.2v8.6q0 1.3 0.1 2.6 0 1.4 0.1 2.8zm16.9-0.2q-1 0.3-2.2 0.4-1.2 0.2-2.3 0.2-1.8 0-2.9-0.3-1.2-0.4-1.9-1.1-0.7-0.8-1-2.1-0.3-1.2-0.3-3.1v-10.5h-3.6v-4.2h3.6v-6.4l5.3-1.5v7.9h5.1v4.2h-5.1v9.1q0 2 0.6 2.7 0.5 0.8 1.9 0.8 1.4 0 2.4-0.3zm18.2 0.1h-15v-3.8l8.4-12.3q-0.6 0-1.8 0.1-1.1 0-2.6 0h-3.7v-4.8h14.6v3.8l-8.3 12.2q1.9-0.1 2.3-0.1 0.5 0 2.5 0h3.6zm18.4-10.9q0-5.9-3.6-5.9-1.1 0-1.9 0.6-0.8 0.5-1.4 1.4-0.6 1-0.9 2.2-0.3 1.2-0.3 2.5v5.9q1.1 0.4 2.8 0.4 1.1 0 2.1-0.4 1-0.4 1.6-1.2 0.8-0.9 1.1-2.3 0.5-1.3 0.5-3.2zm5.6-0.6q0 2.7-0.8 4.9-0.7 2.2-2.2 3.8-1.4 1.5-3.5 2.4-2.1 0.8-4.8 0.8-2.3 0-4.1-0.2-1.9-0.3-3.7-0.8v-30h5.4v8.9q0 1-0.1 2.1-0.1 1.2-0.2 2 0.8-1.7 2.4-2.7 1.7-1 3.9-1 3.8 0 5.7 2.6 2 2.5 2 7.2zm22.5 11.5h-5q0-0.7 0-1.8 0.1-1.1 0.3-1.9h-0.1q-1 1.8-2.7 3-1.8 1.1-4.4 1.1-1.8 0-3-0.5-1.1-0.5-1.9-1.4-0.7-0.9-1-2.1-0.3-1.2-0.3-2.6v-14.7h5.3v13.4q0 1.6 0.6 2.5 0.5 0.9 2 0.9 1 0 1.9-0.5 0.9-0.5 1.6-1.4 0.6-1 1-2.2 0.4-1.2 0.4-2.6v-10.1h5.3zm19.7-0.5q-1.3 0.4-2.8 0.7-1.6 0.2-3.1 0.2-2.2 0-4-0.6-1.7-0.6-2.9-1.8-1.2-1.2-1.9-3.1-0.6-2-0.6-4.6 0-2.4 0.6-4.5 0.7-2.1 2-3.7 1.3-1.5 3.2-2.4 2.1-0.9 4.8-0.9 1.2 0 2.4 0.2 1.2 0.2 2.2 0.5l-0.9 4.6q-0.8-0.3-1.8-0.5-1-0.3-2.1-0.3-2.4 0-3.6 1.8-1.2 1.8-1.2 4.7 0 1.3 0.2 2.4 0.3 1.1 0.9 1.9 0.6 0.8 1.5 1.3 0.9 0.4 2.3 0.4 2.2 0 4-0.8zm22.2 0.5h-5.3v-13.3q0-1.9-0.6-2.7-0.7-0.8-2-0.8-1 0-1.9 0.6-0.9 0.5-1.5 1.4-0.7 0.9-1.1 2.2-0.4 1.2-0.4 2.6v10h-5.3v-30.6h5.3v9q0 0.9 0 2.1-0.1 1.2-0.3 2.1h0.1q0.9-1.8 2.7-2.8 1.8-1 4.1-1 1.8 0 2.9 0.5 1.3 0.5 2 1.4 0.7 0.9 1 2.1 0.3 1.2 0.3 2.6zm24 0h-5q0-0.7 0-1.8 0-1.1 0.2-1.9-1 1.8-2.8 3-1.7 1.1-4.3 1.1-1.8 0-3-0.5-1.2-0.5-1.9-1.4-0.7-0.9-1.1-2.1-0.2-1.2-0.2-2.6v-14.7h5.3v13.4q0 1.6 0.5 2.5 0.6 0.9 2.1 0.9 1 0 1.9-0.5 0.9-0.6 1.5-1.5 0.7-0.9 1-2.1 0.4-1.2 0.4-2.6v-10.1h5.4zm23.9 0h-5.3v-13.3q0-1.6-0.5-2.6-0.6-0.9-2.1-0.9-1 0-1.9 0.6-0.9 0.5-1.5 1.4-0.7 0.9-1.1 2.1-0.3 1.3-0.3 2.6v10.1h-5.4v-20.9h5.1q0 0.8-0.1 1.8 0 1.1-0.2 2 1-1.9 2.8-3 1.8-1.2 4.3-1.2 1.8 0 3 0.6 1.2 0.5 1.9 1.4 0.7 0.9 1 2.1 0.3 1.2 0.3 2.6zm19.5 2.9q0-1.1-0.8-1.8-0.7-0.8-2.5-0.9l-3.6-0.1h-1q-0.9 0.7-1.4 1.5-0.5 0.8-0.5 1.7 0 1.4 1.2 2.3 1.2 0.8 3.3 0.8 2.6 0 3.9-1 1.4-1 1.4-2.5zm-1.8-16.7q0-1.7-0.9-2.7-1-1-2.9-1-1.8 0-2.8 1.1-1 1-1 2.6 0 1.7 0.9 2.6 1.1 1 2.9 1 1.8 0 2.8-0.9 1-1 1-2.7zm7.1 16q0 1.7-0.8 3.2-0.8 1.5-2.3 2.6-1.5 1.2-3.6 1.8-2.1 0.7-4.7 0.7-4.2 0-6.6-1.6-2.4-1.5-2.4-4.6 0-1.7 1-3 0.9-1.4 2.2-2.1-0.9-0.5-1.5-1.3-0.5-0.9-0.5-2 0-1.2 0.7-2.2 0.7-1 1.8-1.5-1.5-0.8-2.3-2.2-0.8-1.4-0.8-3.5 0-1.5 0.5-3 0.6-1.4 1.8-2.5 1.1-1.1 2.9-1.7 1.7-0.7 4-0.7 1 0 1.7 0.1 0.8 0.2 1.7 0.4h7.1v4.2h-2.9q1 1 1 2.6 0 1.7-0.5 3.1-0.6 1.4-1.7 2.4-1.1 1-2.8 1.5-1.7 0.5-3.9 0.5-0.8 0-1.6-0.1-0.5 0.2-0.8 0.6-0.2 0.4-0.2 0.7 0 0.7 0.6 1 0.7 0.2 2.6 0.3l3.2 0.2q3.4 0.1 5.3 1.6 1.8 1.5 1.8 4.5zm16.9-8.8q0 1.6-0.6 2.9-0.7 1.3-1.9 2.2-1.2 0.9-2.9 1.4-1.7 0.5-3.8 0.5-1.2 0-2.4-0.1-1.2-0.2-2.2-0.5l0.4-4.5q0.9 0.5 2.1 0.7 1.1 0.2 2.3 0.2 1.5 0 2.5-0.6 0.9-0.6 0.9-1.6 0-1-0.7-1.5-0.6-0.5-1.6-0.9-0.9-0.3-2-0.7-1.1-0.4-2-1-0.9-0.7-1.6-1.7-0.6-1.1-0.6-2.9 0-1.4 0.5-2.6 0.5-1.2 1.6-2.1 1.1-0.9 2.8-1.4 1.6-0.6 3.9-0.6 0.9 0 1.9 0.1 1.1 0.1 1.9 0.3l-0.2 4.2q-0.9-0.2-1.9-0.3-0.9-0.2-1.9-0.2-1.6 0-2.4 0.6-0.7 0.6-0.7 1.5 0 0.9 0.7 1.4 0.6 0.5 1.6 0.9 0.9 0.4 2 0.8 1.2 0.4 2.1 1.1 1 0.6 1.6 1.7 0.6 1 0.6 2.7zm13.9-2.9h-10.4v-4.4h10.4zm18.7-0.6l-2.9-8.4q-0.3-1.1-0.6-2-0.3-1-0.5-1.9h-0.1q-0.2 0.9-0.5 1.9-0.3 0.9-0.6 2l-2.9 8.4zm9.4 10.1h-6l-2-5.8h-10.7l-2 5.8h-5.5l9.8-28.3h6.4zm16.4-11q0-5.9-3.6-5.9-1 0-1.9 0.6-0.8 0.5-1.4 1.5-0.6 0.9-0.9 2.2-0.3 1.2-0.3 2.5v5.8q1.3 0.4 2.8 0.4 1.2 0 2.1-0.4 1-0.3 1.7-1.2 0.7-0.9 1.1-2.2 0.4-1.3 0.4-3.3zm5.6-0.6q0 2.8-0.7 4.9-0.7 2.2-2.1 3.8-1.4 1.5-3.4 2.4-2.1 0.8-4.8 0.8-0.7 0-1.4-0.1-0.6 0-1.3-0.1v10h-5.4v-31h5q0 0.8 0 1.7 0 1-0.2 1.8h0.1q0.9-1.9 2.5-2.9 1.7-1 4.1-1 3.7 0 5.6 2.6 2 2.5 2 7.1zm17.9 0.6q0-5.9-3.6-5.9-1.1 0-1.9 0.6-0.8 0.5-1.4 1.5-0.6 0.9-0.9 2.2-0.3 1.2-0.3 2.5v5.8q1.3 0.4 2.8 0.4 1.1 0 2.1-0.4 1-0.3 1.6-1.2 0.8-0.9 1.1-2.2 0.5-1.3 0.5-3.3zm5.6-0.6q0 2.8-0.7 4.9-0.7 2.2-2.1 3.8-1.4 1.5-3.5 2.4-2 0.8-4.7 0.8-0.8 0-1.4-0.1-0.6 0-1.3-0.1v10h-5.4v-31h5q0 0.8 0 1.7-0.1 1-0.2 1.8h0.1q0.9-1.9 2.5-2.9 1.7-1 4-1 3.8 0 5.7 2.6 2 2.5 2 7.1z"/>
	</g>
</svg>